<svg xmlns="http://www.w3.org/2000/svg" viewBox="0 0 512 512">
  <rect width="512" height="512" rx="96" fill="#050816"/>
  <g transform="translate(64, 64)">
    <!-- Dollar sign -->
    <path d="M192 32v32c53 0 96 43 96 96h-48c0-26.5-21.5-48-48-48s-48 21.5-48 48c0 20.9 13.4 39.4 33.3 46l78.7 26.2c39.8 13.3 66.6 50.3 66.6 92.7 0 53-43 96-96 96v32h-48v-32c-53 0-96-43-96-96h48c0 26.5 21.5 48 48 48s48-21.5 48-48c0-20.9-13.4-39.4-33.3-46l-78.7-26.2C94.4 237.4 67.6 200.4 67.6 158c0-53 43-96 96-96V32h48z" fill="#00F5D4"/>
    <!-- Chart bars -->
    <rect x="280" y="240" width="40" height="128" rx="8" fill="#00F5D4" opacity="0.6"/>
    <rect x="336" y="192" width="40" height="176" rx="8" fill="#00F5D4" opacity="0.8"/>
  </g>
</svg>
